<svg width="20px" height="20px" class="bi bi-eye pm-eye-icon" viewBox="0 0 48 48" xmlns="http://www.w3.org/2000/svg">
    <path fill="#4D4D4D" d="M48 24s-9 -16.5 -24 -16.5S0 24 0 24s9 16.5 24 16.5S48 24 48 24zM3.519 24a39.399 39.399 0 0 1 4.98 -6.129C12.36 14.004 17.64 10.5 24 10.5c6.36 0 11.637 3.504 15.504 7.371A39.399 39.399 0 0 1 44.484 24c-0.174 0.261 -0.366 0.549 -0.585 0.864 -1.005 1.44 -2.49 3.36 -4.395 5.265C35.637 33.996 30.357 37.5 24 37.5c-6.36 0 -11.637 -3.504 -15.504 -7.371A39.402 39.402 0 0 1 3.516 24z"/>
    <path stroke="#034CA6" fill="#034CA6" d="M24 16.5a7.5 7.5 0 1 0 0 15 7.5 7.5 0 0 0 0 -15zM13.5 24a10.5 10.5 0 1 1 21 0 10.5 10.5 0 0 1 -21 0z"/>
</svg>
