<svg width="20px" height="20px" class="pm-theme-icon" fill="currentColor" viewBox="0 0 32 32" xmlns="http://www.w3.org/2000/svg">
    <g>
        <path d="M23,28H18a1,1,0,0,1-1-1,3,3,0,0,0-6,0,1,1,0,0,1-1,1H5a1,1,0,0,1-1-1V22a1,1,0,0,1,1-1,3,3,0,0,0,0-6,1,1,0,0,1-1-1V9A1,1,0,0,1,5,8H9.1a5,5,0,0,1,9.8,0H23a1,1,0,0,1,1,1v4.1a5,5,0,0,1,0,9.8V27A1,1,0,0,1,23,28Zm-4.1-2H22V22a1,1,0,0,1,1-1,3,3,0,0,0,0-6,1,1,0,0,1-1-1V10H18a1,1,0,0,1-1-1,3,3,0,0,0-6,0,1,1,0,0,1-1,1H6v3.1a5,5,0,0,1,0,9.8V26H9.1a5,5,0,0,1,9.8,0Z"/>
        <path d="M26,18.15c-.46,2.16-5.94,2.36-9.46,2.36s-6.71-2.43-6.71-3.64h-1A4.17,4.17,0,0,1,9,18a4,4,0,0,1-4,4v5h5a4,4,0,0,1,8,0h5V22a4,4,0,0,0,3.1-1.5Z"/>
    </g>
</svg>
